<svg viewBox="0 0 32 32" xmlns="http://www.w3.org/2000/svg" fill-rule="evenodd" clip-rule="evenodd" stroke-linejoin="round" stroke-miterlimit="2">
    <path fill="rgb(77, 182, 172)" fill-rule="nonzero" d="M5.227 15.27c0-6.025 4.892-10.917 10.917-10.917 6.026 0 10.918 4.892 10.918 10.917 0 3.134-1.308 6.355-4.533 9.032-3.909 3.245-9.15 3.688-17.254 3.153-2.406-.159-2.754-.57-1.511-1.487 3.907-2.884 1.463-5.09 1.463-10.698z"></path>
    <path fill="rgb(255, 255, 255)" fill-rule="nonzero" d="M10.17 16.93c.202.2.467.307.795.307.51 0 .838-.255 1.007-.764l.011-.042 1.103.286-.011.053a1.97 1.97 0 01-.763 1.156 2.245 2.245 0 01-1.347.434 2.251 2.251 0 01-1.6-.625c-.435-.414-.658-.954-.658-1.611 0-.647.223-1.198.658-1.612a2.25 2.25 0 011.6-.625c.499 0 .944.148 1.325.424.382.286.647.668.796 1.134l.01.053-1.155.329-.01-.053c-.128-.52-.446-.774-.966-.774-.328 0-.593.106-.795.318-.201.212-.307.487-.307.827.01.297.106.572.307.784zm4.41 1.282h-1.198v-4.23h1.198v.647c.371-.467.848-.7 1.42-.7.139 0 .234.01.308.032l.043.01-.064 1.146H16c-.954 0-1.42.561-1.42 1.717v1.378zm3.244 0h-1.198v-4.23h1.198v.276c.307-.265.7-.392 1.177-.392.583 0 1.039.212 1.357.646.37-.424.869-.646 1.494-.646.456 0 .848.159 1.166.477.318.318.488.742.488 1.24v2.629h-1.187v-2.406a.902.902 0 00-.212-.615.72.72 0 00-.54-.223c-.287 0-.5.096-.658.297-.16.201-.244.509-.244.912v2.035h-1.198v-2.406a.902.902 0 00-.212-.615.72.72 0 00-.54-.223c-.287 0-.499.096-.658.297-.159.201-.233.509-.233.912v2.035z"></path>
</svg>